<svg width="149" height="52" viewBox="0 0 149 52" fill="none" xmlns="http://www.w3.org/2000/svg">
<path d="M46.3672 22.0078C45.8203 22.0078 45.3307 22.1068 44.8984 22.3047C44.4714 22.5026 44.1094 22.7891 43.8125 23.1641C43.5156 23.5339 43.2891 23.9844 43.1328 24.5156C42.9766 25.0417 42.8984 25.6354 42.8984 26.2969C42.8984 27.1823 43.0234 27.9453 43.2734 28.5859C43.5234 29.2214 43.9036 29.7109 44.4141 30.0547C44.9245 30.3932 45.5703 30.5625 46.3516 30.5625C46.8359 30.5625 47.3073 30.5156 47.7656 30.4219C48.224 30.3281 48.6979 30.2005 49.1875 30.0391V31.6328C48.724 31.8151 48.2552 31.9479 47.7812 32.0312C47.3073 32.1146 46.7604 32.1562 46.1406 32.1562C44.974 32.1562 44.0052 31.9141 43.2344 31.4297C42.4688 30.9453 41.8958 30.263 41.5156 29.3828C41.1406 28.5026 40.9531 27.4714 40.9531 26.2891C40.9531 25.4245 41.0729 24.6328 41.3125 23.9141C41.5521 23.1953 41.901 22.5755 42.3594 22.0547C42.8177 21.5286 43.3828 21.125 44.0547 20.8438C44.7318 20.5573 45.5052 20.4141 46.375 20.4141C46.9479 20.4141 47.5104 20.4792 48.0625 20.6094C48.6198 20.7344 49.1354 20.9141 49.6094 21.1484L48.9531 22.6953C48.5573 22.5078 48.1432 22.3464 47.7109 22.2109C47.2786 22.0755 46.8307 22.0078 46.3672 22.0078ZM61.4766 23.3516V32H59.7734V27.0625C59.7734 26.7396 59.7812 26.4167 59.7969 26.0938C59.8125 25.7708 59.8333 25.4635 59.8594 25.1719H59.8125L57.1797 32H55.7344L53.125 25.1641H53.0703C53.0964 25.4609 53.1146 25.7682 53.125 26.0859C53.1406 26.4036 53.1484 26.7474 53.1484 27.1172V32H51.4453V23.3516H54.0078L56.4766 29.8125L58.9844 23.3516H61.4766ZM71.7344 27.6562C71.7344 28.375 71.6406 29.013 71.4531 29.5703C71.2656 30.1276 70.9922 30.599 70.6328 30.9844C70.2734 31.3646 69.8411 31.6562 69.3359 31.8594C68.8307 32.0573 68.2604 32.1562 67.625 32.1562C67.0312 32.1562 66.487 32.0573 65.9922 31.8594C65.4974 31.6562 65.0677 31.3646 64.7031 30.9844C64.3438 30.599 64.0651 30.1276 63.8672 29.5703C63.6693 29.013 63.5703 28.375 63.5703 27.6562C63.5703 26.7031 63.7344 25.8958 64.0625 25.2344C64.3958 24.5677 64.8698 24.0599 65.4844 23.7109C66.099 23.362 66.8307 23.1875 67.6797 23.1875C68.4766 23.1875 69.1797 23.362 69.7891 23.7109C70.3984 24.0599 70.875 24.5677 71.2188 25.2344C71.5625 25.901 71.7344 26.7083 71.7344 27.6562ZM65.4609 27.6562C65.4609 28.2865 65.5365 28.8255 65.6875 29.2734C65.8438 29.7214 66.0833 30.0651 66.4062 30.3047C66.7292 30.5391 67.1458 30.6562 67.6562 30.6562C68.1667 30.6562 68.5833 30.5391 68.9062 30.3047C69.2292 30.0651 69.4661 29.7214 69.6172 29.2734C69.7682 28.8255 69.8438 28.2865 69.8438 27.6562C69.8438 27.026 69.7682 26.4922 69.6172 26.0547C69.4661 25.612 69.2292 25.276 68.9062 25.0469C68.5833 24.8125 68.1641 24.6953 67.6484 24.6953C66.888 24.6953 66.3333 24.9505 65.9844 25.4609C65.6354 25.9714 65.4609 26.7031 65.4609 27.6562ZM80.375 24.7969H77.5312V32H75.7031V24.7969H72.875V23.3516H80.375V24.7969ZM86.4844 23.1875C87.5104 23.1875 88.3333 23.5625 88.9531 24.3125C89.5781 25.0625 89.8906 26.1771 89.8906 27.6562C89.8906 28.6354 89.7448 29.4609 89.4531 30.1328C89.1667 30.7995 88.763 31.3047 88.2422 31.6484C87.7266 31.987 87.125 32.1562 86.4375 32.1562C86 32.1562 85.6198 32.099 85.2969 31.9844C84.974 31.8698 84.6979 31.7214 84.4688 31.5391C84.2396 31.3516 84.0469 31.1484 83.8906 30.9297H83.7812C83.8073 31.138 83.8307 31.3698 83.8516 31.625C83.8776 31.875 83.8906 32.1042 83.8906 32.3125V35.8359H82.0469V23.3516H83.5469L83.8047 24.5469H83.8906C84.0521 24.3021 84.2474 24.0755 84.4766 23.8672C84.7109 23.6589 84.9922 23.4948 85.3203 23.375C85.6536 23.25 86.0417 23.1875 86.4844 23.1875ZM85.9922 24.6875C85.487 24.6875 85.0807 24.7891 84.7734 24.9922C84.4714 25.1901 84.25 25.4896 84.1094 25.8906C83.974 26.2917 83.901 26.7943 83.8906 27.3984V27.6562C83.8906 28.2969 83.9557 28.8411 84.0859 29.2891C84.2214 29.7318 84.4427 30.0703 84.75 30.3047C85.0625 30.5339 85.4844 30.6484 86.0156 30.6484C86.4635 30.6484 86.8333 30.526 87.125 30.2812C87.4219 30.0365 87.6432 29.6875 87.7891 29.2344C87.9349 28.7812 88.0078 28.2474 88.0078 27.6328C88.0078 26.7005 87.8411 25.9766 87.5078 25.4609C87.1797 24.9453 86.6745 24.6875 85.9922 24.6875ZM95.4609 23.1875C96.2318 23.1875 96.8932 23.3464 97.4453 23.6641C97.9974 23.9818 98.4219 24.4323 98.7188 25.0156C99.0156 25.599 99.1641 26.2969 99.1641 27.1094V28.0938H93.3906C93.4115 28.9323 93.6354 29.5781 94.0625 30.0312C94.4948 30.4844 95.099 30.7109 95.875 30.7109C96.4271 30.7109 96.9219 30.6589 97.3594 30.5547C97.8021 30.4453 98.2578 30.2865 98.7266 30.0781V31.5703C98.2943 31.7734 97.8542 31.9219 97.4062 32.0156C96.9583 32.1094 96.4219 32.1562 95.7969 32.1562C94.9479 32.1562 94.2005 31.9922 93.5547 31.6641C92.9141 31.3307 92.4115 30.8359 92.0469 30.1797C91.6875 29.5234 91.5078 28.7083 91.5078 27.7344C91.5078 26.7656 91.6719 25.9427 92 25.2656C92.3281 24.5885 92.7891 24.0729 93.3828 23.7188C93.9766 23.3646 94.6693 23.1875 95.4609 23.1875ZM95.4609 24.5703C94.8828 24.5703 94.4141 24.7578 94.0547 25.1328C93.7005 25.5078 93.4922 26.0573 93.4297 26.7812H97.3672C97.362 26.349 97.2891 25.9661 97.1484 25.6328C97.013 25.2995 96.8047 25.0391 96.5234 24.8516C96.2474 24.6641 95.8932 24.5703 95.4609 24.5703ZM107.766 24.7969H104.922V32H103.094V24.7969H100.266V23.3516H107.766V24.7969ZM111.281 26.8047H113.43C114.242 26.8047 114.914 26.8984 115.445 27.0859C115.982 27.2682 116.383 27.5443 116.648 27.9141C116.914 28.2839 117.047 28.7474 117.047 29.3047C117.047 29.8516 116.922 30.3281 116.672 30.7344C116.422 31.1354 116.031 31.4479 115.5 31.6719C114.974 31.8906 114.286 32 113.438 32H109.438V23.3516H111.281V26.8047ZM115.203 29.3516C115.203 28.9193 115.042 28.6146 114.719 28.4375C114.396 28.2552 113.935 28.1641 113.336 28.1641H111.281V30.6484H113.352C113.898 30.6484 114.344 30.5495 114.688 30.3516C115.031 30.1484 115.203 29.8151 115.203 29.3516ZM130.508 25.5703C130.508 26.0703 130.354 26.4792 130.047 26.7969C129.745 27.1094 129.328 27.3151 128.797 27.4141V27.4766C129.365 27.5495 129.839 27.75 130.219 28.0781C130.599 28.4062 130.789 28.862 130.789 29.4453C130.789 29.9401 130.664 30.3802 130.414 30.7656C130.169 31.1458 129.779 31.4479 129.242 31.6719C128.711 31.8906 128.016 32 127.156 32H123.234V23.3516H127.141C127.786 23.3516 128.362 23.4219 128.867 23.5625C129.378 23.7031 129.779 23.9349 130.07 24.2578C130.362 24.5807 130.508 25.0182 130.508 25.5703ZM128.875 29.3828C128.875 28.9557 128.711 28.6484 128.383 28.4609C128.06 28.2734 127.586 28.1797 126.961 28.1797H125.078V30.6484H127C127.583 30.6484 128.042 30.5521 128.375 30.3594C128.708 30.1615 128.875 29.8359 128.875 29.3828ZM128.641 25.7344C128.641 25.3958 128.513 25.1458 128.258 24.9844C128.003 24.8177 127.602 24.7344 127.055 24.7344H125.078V26.8281H126.805C127.409 26.8281 127.865 26.7422 128.172 26.5703C128.484 26.3932 128.641 26.1146 128.641 25.7344ZM136.344 32.1562C135.526 32.1562 134.818 31.9974 134.219 31.6797C133.62 31.362 133.159 30.875 132.836 30.2188C132.513 29.5625 132.352 28.7292 132.352 27.7188C132.352 26.6667 132.529 25.8073 132.883 25.1406C133.237 24.474 133.727 23.9818 134.352 23.6641C134.982 23.3464 135.703 23.1875 136.516 23.1875C137.031 23.1875 137.497 23.2396 137.914 23.3438C138.336 23.4427 138.693 23.5651 138.984 23.7109L138.438 25.1797C138.12 25.0495 137.794 24.9401 137.461 24.8516C137.128 24.763 136.807 24.7188 136.5 24.7188C135.995 24.7188 135.573 24.8307 135.234 25.0547C134.901 25.2786 134.651 25.612 134.484 26.0547C134.323 26.4974 134.242 27.0469 134.242 27.7031C134.242 28.3385 134.326 28.875 134.492 29.3125C134.659 29.7448 134.906 30.0729 135.234 30.2969C135.562 30.5156 135.966 30.625 136.445 30.625C136.919 30.625 137.344 30.5677 137.719 30.4531C138.094 30.3385 138.448 30.1901 138.781 30.0078V31.6016C138.453 31.7891 138.102 31.9271 137.727 32.0156C137.352 32.1094 136.891 32.1562 136.344 32.1562ZM144.258 23.1875C145.029 23.1875 145.69 23.3464 146.242 23.6641C146.794 23.9818 147.219 24.4323 147.516 25.0156C147.812 25.599 147.961 26.2969 147.961 27.1094V28.0938H142.188C142.208 28.9323 142.432 29.5781 142.859 30.0312C143.292 30.4844 143.896 30.7109 144.672 30.7109C145.224 30.7109 145.719 30.6589 146.156 30.5547C146.599 30.4453 147.055 30.2865 147.523 30.0781V31.5703C147.091 31.7734 146.651 31.9219 146.203 32.0156C145.755 32.1094 145.219 32.1562 144.594 32.1562C143.745 32.1562 142.997 31.9922 142.352 31.6641C141.711 31.3307 141.208 30.8359 140.844 30.1797C140.484 29.5234 140.305 28.7083 140.305 27.7344C140.305 26.7656 140.469 25.9427 140.797 25.2656C141.125 24.5885 141.586 24.0729 142.18 23.7188C142.773 23.3646 143.466 23.1875 144.258 23.1875ZM144.258 24.5703C143.68 24.5703 143.211 24.7578 142.852 25.1328C142.497 25.5078 142.289 26.0573 142.227 26.7812H146.164C146.159 26.349 146.086 25.9661 145.945 25.6328C145.81 25.2995 145.602 25.0391 145.32 24.8516C145.044 24.6641 144.69 24.5703 144.258 24.5703Z" fill="#1F1E1E"/>
</svg>
